<?xml version="1.0" encoding="UTF-8" standalone="no"?>
<!DOCTYPE svg PUBLIC "-//W3C//DTD SVG 1.1//EN" "http://www.w3.org/Graphics/SVG/1.1/DTD/svg11.dtd">
<svg width="100%" height="100%" viewBox="0 0 512 512" version="1.1" xmlns="http://www.w3.org/2000/svg" xmlns:xlink="http://www.w3.org/1999/xlink" xml:space="preserve" xmlns:serif="http://www.serif.com/" style="fill-rule:evenodd;clip-rule:evenodd;stroke-linejoin:round;stroke-miterlimit:1.41421;">
    <path d="M473.472,266.477L511.644,167.868C512.488,165.665 511.785,163.18 509.925,161.759C508.05,160.321 505.472,160.306 503.581,161.696L404.487,234.79C383.159,232.274 360.096,181.321 258.565,156.04L288.237,151.806C292.971,151.134 297.128,148.368 299.596,144.259C302.049,140.165 286.752,134.007 300.893,130.696L285.971,89.665C284.143,84.649 279.924,80.884 274.737,79.649C269.55,78.414 264.096,79.868 260.206,83.524L192.284,147.462C82.394,149.867 0.003,238.32 0.003,266.477C3.737,290.086 48.894,344.352 117.253,370.727C128.324,374.999 171.091,393.63 198.372,391.036C198.372,391.036 241.847,431.103 246.19,432.259C250.534,433.4 255.159,432.665 258.94,430.196L274.393,420.087C278.659,417.306 301.224,391.895 297.271,388.707L263.282,368.369C367.876,343.431 382.924,300.712 404.487,298.165L503.581,371.259C505.472,372.65 508.05,372.634 509.925,371.212C511.784,369.79 512.488,367.29 511.644,365.103L473.472,266.477M110.761,214.423C110.761,214.423 114.627,240.491 115.133,245.183C117.519,267.351 118.501,293.956 110.09,297.427C95.37,303.503 170.871,322.571 180.009,302.532C185.335,290.852 189.472,264.449 189.191,242.663C189.123,237.439 188.801,232.48 188.181,228.054C186.95,219.268 184.542,212.58 180.609,210.075C166.431,201.044 110.761,214.423 110.761,214.423M58.491,268.417C49.225,268.417 41.71,260.886 41.71,251.636C41.71,247.256 43.389,243.267 46.138,240.279C49.206,236.944 53.605,234.855 58.491,234.855C62.215,234.855 65.657,236.069 68.441,238.123C72.584,241.18 75.272,246.095 75.272,251.636C75.272,260.886 67.756,268.417 58.491,268.417" style="fill:rgb(62,62,62);"/>
    <g transform="matrix(1.04432,0,0,1,-8.38573,-2.78394)">
        <rect x="112.759" y="228.054" width="76.432" height="12.603" style="fill:rgb(62,62,62);"/>
    </g>
    <g transform="matrix(1,0,0,1,0,22.1892)">
        <rect x="112.759" y="228.054" width="76.432" height="12.603" style="fill:rgb(62,62,62);"/>
    </g>
    <g transform="matrix(1,0,0,1,0,47.6975)">
        <rect x="112.759" y="228.054" width="76.432" height="12.603" style="fill:rgb(62,62,62);"/>
    </g>
</svg>
